<mxfile host="65bd71144e">
    <diagram id="VOP7qsM3LI2n18yXFati" name="Page-1">
        <mxGraphModel dx="1153" dy="958" grid="1" gridSize="10" guides="1" tooltips="1" connect="1" arrows="1" fold="1" page="1" pageScale="1" pageWidth="827" pageHeight="1169" math="0" shadow="0">
            <root>
                <mxCell id="0"/>
                <mxCell id="1" parent="0"/>
                <mxCell id="AiQ3czS3Y79dKDK99Ic4-1" value="EQUIPOS" style="shape=table;startSize=30;container=1;collapsible=1;childLayout=tableLayout;fixedRows=1;rowLines=0;fontStyle=1;align=center;resizeLast=1;" parent="1" vertex="1">
                    <mxGeometry x="593" y="206" width="280" height="470" as="geometry"/>
                </mxCell>
                <mxCell id="AiQ3czS3Y79dKDK99Ic4-2" value="" style="shape=partialRectangle;collapsible=0;dropTarget=0;pointerEvents=0;fillColor=none;top=0;left=0;bottom=1;right=0;points=[[0,0.5],[1,0.5]];portConstraint=eastwest;" parent="AiQ3czS3Y79dKDK99Ic4-1" vertex="1">
                    <mxGeometry y="30" width="280" height="30" as="geometry"/>
                </mxCell>
                <mxCell id="AiQ3czS3Y79dKDK99Ic4-3" value="PK" style="shape=partialRectangle;connectable=0;fillColor=none;top=0;left=0;bottom=0;right=0;fontStyle=1;overflow=hidden;" parent="AiQ3czS3Y79dKDK99Ic4-2" vertex="1">
                    <mxGeometry width="30" height="30" as="geometry">
                        <mxRectangle width="30" height="30" as="alternateBounds"/>
                    </mxGeometry>
                </mxCell>
                <mxCell id="AiQ3czS3Y79dKDK99Ic4-4" value="ID - VARCHAR(40)" style="shape=partialRectangle;connectable=0;fillColor=none;top=0;left=0;bottom=0;right=0;align=left;spacingLeft=6;fontStyle=5;overflow=hidden;" parent="AiQ3czS3Y79dKDK99Ic4-2" vertex="1">
                    <mxGeometry x="30" width="250" height="30" as="geometry">
                        <mxRectangle width="250" height="30" as="alternateBounds"/>
                    </mxGeometry>
                </mxCell>
                <mxCell id="AiQ3czS3Y79dKDK99Ic4-5" value="" style="shape=partialRectangle;collapsible=0;dropTarget=0;pointerEvents=0;fillColor=none;top=0;left=0;bottom=0;right=0;points=[[0,0.5],[1,0.5]];portConstraint=eastwest;" parent="AiQ3czS3Y79dKDK99Ic4-1" vertex="1">
                    <mxGeometry y="60" width="280" height="30" as="geometry"/>
                </mxCell>
                <mxCell id="AiQ3czS3Y79dKDK99Ic4-6" value="" style="shape=partialRectangle;connectable=0;fillColor=none;top=0;left=0;bottom=0;right=0;editable=1;overflow=hidden;" parent="AiQ3czS3Y79dKDK99Ic4-5" vertex="1">
                    <mxGeometry width="30" height="30" as="geometry">
                        <mxRectangle width="30" height="30" as="alternateBounds"/>
                    </mxGeometry>
                </mxCell>
                <mxCell id="AiQ3czS3Y79dKDK99Ic4-7" value="Serie - VARCHAR(50)" style="shape=partialRectangle;connectable=0;fillColor=none;top=0;left=0;bottom=0;right=0;align=left;spacingLeft=6;overflow=hidden;" parent="AiQ3czS3Y79dKDK99Ic4-5" vertex="1">
                    <mxGeometry x="30" width="250" height="30" as="geometry">
                        <mxRectangle width="250" height="30" as="alternateBounds"/>
                    </mxGeometry>
                </mxCell>
                <mxCell id="AiQ3czS3Y79dKDK99Ic4-8" value="" style="shape=partialRectangle;collapsible=0;dropTarget=0;pointerEvents=0;fillColor=none;top=0;left=0;bottom=0;right=0;points=[[0,0.5],[1,0.5]];portConstraint=eastwest;" parent="AiQ3czS3Y79dKDK99Ic4-1" vertex="1">
                    <mxGeometry y="90" width="280" height="30" as="geometry"/>
                </mxCell>
                <mxCell id="AiQ3czS3Y79dKDK99Ic4-9" value="" style="shape=partialRectangle;connectable=0;fillColor=none;top=0;left=0;bottom=0;right=0;editable=1;overflow=hidden;" parent="AiQ3czS3Y79dKDK99Ic4-8" vertex="1">
                    <mxGeometry width="30" height="30" as="geometry">
                        <mxRectangle width="30" height="30" as="alternateBounds"/>
                    </mxGeometry>
                </mxCell>
                <mxCell id="AiQ3czS3Y79dKDK99Ic4-10" value="Descripción - VARCHAR(100)" style="shape=partialRectangle;connectable=0;fillColor=none;top=0;left=0;bottom=0;right=0;align=left;spacingLeft=6;overflow=hidden;" parent="AiQ3czS3Y79dKDK99Ic4-8" vertex="1">
                    <mxGeometry x="30" width="250" height="30" as="geometry">
                        <mxRectangle width="250" height="30" as="alternateBounds"/>
                    </mxGeometry>
                </mxCell>
                <mxCell id="AiQ3czS3Y79dKDK99Ic4-11" value="" style="shape=partialRectangle;collapsible=0;dropTarget=0;pointerEvents=0;fillColor=none;top=0;left=0;bottom=0;right=0;points=[[0,0.5],[1,0.5]];portConstraint=eastwest;" parent="AiQ3czS3Y79dKDK99Ic4-1" vertex="1">
                    <mxGeometry y="120" width="280" height="30" as="geometry"/>
                </mxCell>
                <mxCell id="AiQ3czS3Y79dKDK99Ic4-12" value="" style="shape=partialRectangle;connectable=0;fillColor=none;top=0;left=0;bottom=0;right=0;editable=1;overflow=hidden;" parent="AiQ3czS3Y79dKDK99Ic4-11" vertex="1">
                    <mxGeometry width="30" height="30" as="geometry">
                        <mxRectangle width="30" height="30" as="alternateBounds"/>
                    </mxGeometry>
                </mxCell>
                <mxCell id="AiQ3czS3Y79dKDK99Ic4-13" value="Estado - VARCHAR(30)" style="shape=partialRectangle;connectable=0;fillColor=none;top=0;left=0;bottom=0;right=0;align=left;spacingLeft=6;overflow=hidden;" parent="AiQ3czS3Y79dKDK99Ic4-11" vertex="1">
                    <mxGeometry x="30" width="250" height="30" as="geometry">
                        <mxRectangle width="250" height="30" as="alternateBounds"/>
                    </mxGeometry>
                </mxCell>
                <mxCell id="AiQ3czS3Y79dKDK99Ic4-17" value="" style="shape=partialRectangle;collapsible=0;dropTarget=0;pointerEvents=0;fillColor=none;top=0;left=0;bottom=0;right=0;points=[[0,0.5],[1,0.5]];portConstraint=eastwest;" parent="AiQ3czS3Y79dKDK99Ic4-1" vertex="1">
                    <mxGeometry y="150" width="280" height="30" as="geometry"/>
                </mxCell>
                <mxCell id="AiQ3czS3Y79dKDK99Ic4-18" value="" style="shape=partialRectangle;connectable=0;fillColor=none;top=0;left=0;bottom=0;right=0;editable=1;overflow=hidden;" parent="AiQ3czS3Y79dKDK99Ic4-17" vertex="1">
                    <mxGeometry width="30" height="30" as="geometry">
                        <mxRectangle width="30" height="30" as="alternateBounds"/>
                    </mxGeometry>
                </mxCell>
                <mxCell id="AiQ3czS3Y79dKDK99Ic4-19" value="Activo - VARCHAR(15)" style="shape=partialRectangle;connectable=0;fillColor=none;top=0;left=0;bottom=0;right=0;align=left;spacingLeft=6;overflow=hidden;" parent="AiQ3czS3Y79dKDK99Ic4-17" vertex="1">
                    <mxGeometry x="30" width="250" height="30" as="geometry">
                        <mxRectangle width="250" height="30" as="alternateBounds"/>
                    </mxGeometry>
                </mxCell>
                <mxCell id="AiQ3czS3Y79dKDK99Ic4-24" value="" style="shape=partialRectangle;collapsible=0;dropTarget=0;pointerEvents=0;fillColor=none;top=0;left=0;bottom=0;right=0;points=[[0,0.5],[1,0.5]];portConstraint=eastwest;" parent="AiQ3czS3Y79dKDK99Ic4-1" vertex="1">
                    <mxGeometry y="180" width="280" height="30" as="geometry"/>
                </mxCell>
                <mxCell id="AiQ3czS3Y79dKDK99Ic4-25" value="" style="shape=partialRectangle;connectable=0;fillColor=none;top=0;left=0;bottom=0;right=0;editable=1;overflow=hidden;" parent="AiQ3czS3Y79dKDK99Ic4-24" vertex="1">
                    <mxGeometry width="30" height="30" as="geometry">
                        <mxRectangle width="30" height="30" as="alternateBounds"/>
                    </mxGeometry>
                </mxCell>
                <mxCell id="AiQ3czS3Y79dKDK99Ic4-26" value="Calibración - VARCHAR(10)" style="shape=partialRectangle;connectable=0;fillColor=none;top=0;left=0;bottom=0;right=0;align=left;spacingLeft=6;overflow=hidden;" parent="AiQ3czS3Y79dKDK99Ic4-24" vertex="1">
                    <mxGeometry x="30" width="250" height="30" as="geometry">
                        <mxRectangle width="250" height="30" as="alternateBounds"/>
                    </mxGeometry>
                </mxCell>
                <mxCell id="AiQ3czS3Y79dKDK99Ic4-27" value="" style="shape=partialRectangle;collapsible=0;dropTarget=0;pointerEvents=0;fillColor=none;top=0;left=0;bottom=0;right=0;points=[[0,0.5],[1,0.5]];portConstraint=eastwest;" parent="AiQ3czS3Y79dKDK99Ic4-1" vertex="1">
                    <mxGeometry y="210" width="280" height="30" as="geometry"/>
                </mxCell>
                <mxCell id="AiQ3czS3Y79dKDK99Ic4-28" value="" style="shape=partialRectangle;connectable=0;fillColor=none;top=0;left=0;bottom=0;right=0;editable=1;overflow=hidden;" parent="AiQ3czS3Y79dKDK99Ic4-27" vertex="1">
                    <mxGeometry width="30" height="30" as="geometry">
                        <mxRectangle width="30" height="30" as="alternateBounds"/>
                    </mxGeometry>
                </mxCell>
                <mxCell id="AiQ3czS3Y79dKDK99Ic4-29" value="Ubicación VARCHAR(40)" style="shape=partialRectangle;connectable=0;fillColor=none;top=0;left=0;bottom=0;right=0;align=left;spacingLeft=6;overflow=hidden;" parent="AiQ3czS3Y79dKDK99Ic4-27" vertex="1">
                    <mxGeometry x="30" width="250" height="30" as="geometry">
                        <mxRectangle width="250" height="30" as="alternateBounds"/>
                    </mxGeometry>
                </mxCell>
                <mxCell id="AiQ3czS3Y79dKDK99Ic4-30" value="" style="shape=partialRectangle;collapsible=0;dropTarget=0;pointerEvents=0;fillColor=none;top=0;left=0;bottom=0;right=0;points=[[0,0.5],[1,0.5]];portConstraint=eastwest;" parent="AiQ3czS3Y79dKDK99Ic4-1" vertex="1">
                    <mxGeometry y="240" width="280" height="30" as="geometry"/>
                </mxCell>
                <mxCell id="AiQ3czS3Y79dKDK99Ic4-31" value="" style="shape=partialRectangle;connectable=0;fillColor=none;top=0;left=0;bottom=0;right=0;editable=1;overflow=hidden;" parent="AiQ3czS3Y79dKDK99Ic4-30" vertex="1">
                    <mxGeometry width="30" height="30" as="geometry">
                        <mxRectangle width="30" height="30" as="alternateBounds"/>
                    </mxGeometry>
                </mxCell>
                <mxCell id="AiQ3czS3Y79dKDK99Ic4-32" value="Resolución Inferior  - VARCHAR(20)" style="shape=partialRectangle;connectable=0;fillColor=none;top=0;left=0;bottom=0;right=0;align=left;spacingLeft=6;overflow=hidden;" parent="AiQ3czS3Y79dKDK99Ic4-30" vertex="1">
                    <mxGeometry x="30" width="250" height="30" as="geometry">
                        <mxRectangle width="250" height="30" as="alternateBounds"/>
                    </mxGeometry>
                </mxCell>
                <mxCell id="AiQ3czS3Y79dKDK99Ic4-33" value="" style="shape=partialRectangle;collapsible=0;dropTarget=0;pointerEvents=0;fillColor=none;top=0;left=0;bottom=0;right=0;points=[[0,0.5],[1,0.5]];portConstraint=eastwest;" parent="AiQ3czS3Y79dKDK99Ic4-1" vertex="1">
                    <mxGeometry y="270" width="280" height="30" as="geometry"/>
                </mxCell>
                <mxCell id="AiQ3czS3Y79dKDK99Ic4-34" value="" style="shape=partialRectangle;connectable=0;fillColor=none;top=0;left=0;bottom=0;right=0;editable=1;overflow=hidden;" parent="AiQ3czS3Y79dKDK99Ic4-33" vertex="1">
                    <mxGeometry width="30" height="30" as="geometry">
                        <mxRectangle width="30" height="30" as="alternateBounds"/>
                    </mxGeometry>
                </mxCell>
                <mxCell id="AiQ3czS3Y79dKDK99Ic4-35" value="Resolución Superior - VARCHAR(20)" style="shape=partialRectangle;connectable=0;fillColor=none;top=0;left=0;bottom=0;right=0;align=left;spacingLeft=6;overflow=hidden;" parent="AiQ3czS3Y79dKDK99Ic4-33" vertex="1">
                    <mxGeometry x="30" width="250" height="30" as="geometry">
                        <mxRectangle width="250" height="30" as="alternateBounds"/>
                    </mxGeometry>
                </mxCell>
                <mxCell id="AiQ3czS3Y79dKDK99Ic4-36" value="" style="shape=partialRectangle;collapsible=0;dropTarget=0;pointerEvents=0;fillColor=none;top=0;left=0;bottom=0;right=0;points=[[0,0.5],[1,0.5]];portConstraint=eastwest;" parent="AiQ3czS3Y79dKDK99Ic4-1" vertex="1">
                    <mxGeometry y="300" width="280" height="30" as="geometry"/>
                </mxCell>
                <mxCell id="AiQ3czS3Y79dKDK99Ic4-37" value="" style="shape=partialRectangle;connectable=0;fillColor=none;top=0;left=0;bottom=0;right=0;editable=1;overflow=hidden;" parent="AiQ3czS3Y79dKDK99Ic4-36" vertex="1">
                    <mxGeometry width="30" height="30" as="geometry">
                        <mxRectangle width="30" height="30" as="alternateBounds"/>
                    </mxGeometry>
                </mxCell>
                <mxCell id="AiQ3czS3Y79dKDK99Ic4-38" value="Error - VARCHAR(20)" style="shape=partialRectangle;connectable=0;fillColor=none;top=0;left=0;bottom=0;right=0;align=left;spacingLeft=6;overflow=hidden;" parent="AiQ3czS3Y79dKDK99Ic4-36" vertex="1">
                    <mxGeometry x="30" width="250" height="30" as="geometry">
                        <mxRectangle width="250" height="30" as="alternateBounds"/>
                    </mxGeometry>
                </mxCell>
                <mxCell id="AiQ3czS3Y79dKDK99Ic4-39" value="" style="shape=partialRectangle;collapsible=0;dropTarget=0;pointerEvents=0;fillColor=none;top=0;left=0;bottom=0;right=0;points=[[0,0.5],[1,0.5]];portConstraint=eastwest;" parent="AiQ3czS3Y79dKDK99Ic4-1" vertex="1">
                    <mxGeometry y="330" width="280" height="30" as="geometry"/>
                </mxCell>
                <mxCell id="AiQ3czS3Y79dKDK99Ic4-40" value="" style="shape=partialRectangle;connectable=0;fillColor=none;top=0;left=0;bottom=0;right=0;editable=1;overflow=hidden;" parent="AiQ3czS3Y79dKDK99Ic4-39" vertex="1">
                    <mxGeometry width="30" height="30" as="geometry">
                        <mxRectangle width="30" height="30" as="alternateBounds"/>
                    </mxGeometry>
                </mxCell>
                <mxCell id="AiQ3czS3Y79dKDK99Ic4-41" value="Periodo - INT" style="shape=partialRectangle;connectable=0;fillColor=none;top=0;left=0;bottom=0;right=0;align=left;spacingLeft=6;overflow=hidden;" parent="AiQ3czS3Y79dKDK99Ic4-39" vertex="1">
                    <mxGeometry x="30" width="250" height="30" as="geometry">
                        <mxRectangle width="250" height="30" as="alternateBounds"/>
                    </mxGeometry>
                </mxCell>
                <mxCell id="AiQ3czS3Y79dKDK99Ic4-43" value="" style="shape=partialRectangle;collapsible=0;dropTarget=0;pointerEvents=0;fillColor=none;top=0;left=0;bottom=0;right=0;points=[[0,0.5],[1,0.5]];portConstraint=eastwest;" parent="AiQ3czS3Y79dKDK99Ic4-1" vertex="1">
                    <mxGeometry y="360" width="280" height="20" as="geometry"/>
                </mxCell>
                <mxCell id="AiQ3czS3Y79dKDK99Ic4-44" value="" style="shape=partialRectangle;connectable=0;fillColor=none;top=0;left=0;bottom=0;right=0;editable=1;overflow=hidden;" parent="AiQ3czS3Y79dKDK99Ic4-43" vertex="1">
                    <mxGeometry width="30" height="20" as="geometry">
                        <mxRectangle width="30" height="20" as="alternateBounds"/>
                    </mxGeometry>
                </mxCell>
                <mxCell id="AiQ3czS3Y79dKDK99Ic4-45" value="Ultima - DATE" style="shape=partialRectangle;connectable=0;fillColor=none;top=0;left=0;bottom=0;right=0;align=left;spacingLeft=6;overflow=hidden;" parent="AiQ3czS3Y79dKDK99Ic4-43" vertex="1">
                    <mxGeometry x="30" width="250" height="20" as="geometry">
                        <mxRectangle width="250" height="20" as="alternateBounds"/>
                    </mxGeometry>
                </mxCell>
                <mxCell id="AiQ3czS3Y79dKDK99Ic4-46" value="" style="shape=partialRectangle;collapsible=0;dropTarget=0;pointerEvents=0;fillColor=none;top=0;left=0;bottom=0;right=0;points=[[0,0.5],[1,0.5]];portConstraint=eastwest;" parent="AiQ3czS3Y79dKDK99Ic4-1" vertex="1">
                    <mxGeometry y="380" width="280" height="30" as="geometry"/>
                </mxCell>
                <mxCell id="AiQ3czS3Y79dKDK99Ic4-47" value="" style="shape=partialRectangle;connectable=0;fillColor=none;top=0;left=0;bottom=0;right=0;editable=1;overflow=hidden;" parent="AiQ3czS3Y79dKDK99Ic4-46" vertex="1">
                    <mxGeometry width="30" height="30" as="geometry">
                        <mxRectangle width="30" height="30" as="alternateBounds"/>
                    </mxGeometry>
                </mxCell>
                <mxCell id="AiQ3czS3Y79dKDK99Ic4-48" value="Siguiente - DATE" style="shape=partialRectangle;connectable=0;fillColor=none;top=0;left=0;bottom=0;right=0;align=left;spacingLeft=6;overflow=hidden;" parent="AiQ3czS3Y79dKDK99Ic4-46" vertex="1">
                    <mxGeometry x="30" width="250" height="30" as="geometry">
                        <mxRectangle width="250" height="30" as="alternateBounds"/>
                    </mxGeometry>
                </mxCell>
                <mxCell id="AiQ3czS3Y79dKDK99Ic4-63" value="" style="shape=partialRectangle;collapsible=0;dropTarget=0;pointerEvents=0;fillColor=none;top=0;left=0;bottom=0;right=0;points=[[0,0.5],[1,0.5]];portConstraint=eastwest;" parent="AiQ3czS3Y79dKDK99Ic4-1" vertex="1">
                    <mxGeometry y="410" width="280" height="30" as="geometry"/>
                </mxCell>
                <mxCell id="AiQ3czS3Y79dKDK99Ic4-64" value="" style="shape=partialRectangle;connectable=0;fillColor=none;top=0;left=0;bottom=0;right=0;editable=1;overflow=hidden;" parent="AiQ3czS3Y79dKDK99Ic4-63" vertex="1">
                    <mxGeometry width="30" height="30" as="geometry">
                        <mxRectangle width="30" height="30" as="alternateBounds"/>
                    </mxGeometry>
                </mxCell>
                <mxCell id="AiQ3czS3Y79dKDK99Ic4-65" value="Aviso - DATE" style="shape=partialRectangle;connectable=0;fillColor=none;top=0;left=0;bottom=0;right=0;align=left;spacingLeft=6;overflow=hidden;" parent="AiQ3czS3Y79dKDK99Ic4-63" vertex="1">
                    <mxGeometry x="30" width="250" height="30" as="geometry">
                        <mxRectangle width="250" height="30" as="alternateBounds"/>
                    </mxGeometry>
                </mxCell>
                <mxCell id="AiQ3czS3Y79dKDK99Ic4-66" value="" style="shape=partialRectangle;collapsible=0;dropTarget=0;pointerEvents=0;fillColor=none;top=0;left=0;bottom=0;right=0;points=[[0,0.5],[1,0.5]];portConstraint=eastwest;" parent="AiQ3czS3Y79dKDK99Ic4-1" vertex="1">
                    <mxGeometry y="440" width="280" height="30" as="geometry"/>
                </mxCell>
                <mxCell id="AiQ3czS3Y79dKDK99Ic4-67" value="FK" style="shape=partialRectangle;connectable=0;fillColor=none;top=0;left=0;bottom=0;right=0;editable=1;overflow=hidden;" parent="AiQ3czS3Y79dKDK99Ic4-66" vertex="1">
                    <mxGeometry width="30" height="30" as="geometry">
                        <mxRectangle width="30" height="30" as="alternateBounds"/>
                    </mxGeometry>
                </mxCell>
                <mxCell id="AiQ3czS3Y79dKDK99Ic4-68" value="Prestatario - VARCHAR(30)" style="shape=partialRectangle;connectable=0;fillColor=none;top=0;left=0;bottom=0;right=0;align=left;spacingLeft=6;overflow=hidden;" parent="AiQ3czS3Y79dKDK99Ic4-66" vertex="1">
                    <mxGeometry x="30" width="250" height="30" as="geometry">
                        <mxRectangle width="250" height="30" as="alternateBounds"/>
                    </mxGeometry>
                </mxCell>
                <mxCell id="AiQ3czS3Y79dKDK99Ic4-82" value="USUARIOS" style="shape=table;startSize=30;container=1;collapsible=1;childLayout=tableLayout;fixedRows=1;rowLines=0;fontStyle=1;align=center;resizeLast=1;" parent="1" vertex="1">
                    <mxGeometry x="593" y="696" width="280" height="220" as="geometry"/>
                </mxCell>
                <mxCell id="AiQ3czS3Y79dKDK99Ic4-83" value="" style="shape=partialRectangle;collapsible=0;dropTarget=0;pointerEvents=0;fillColor=none;top=0;left=0;bottom=1;right=0;points=[[0,0.5],[1,0.5]];portConstraint=eastwest;" parent="AiQ3czS3Y79dKDK99Ic4-82" vertex="1">
                    <mxGeometry y="30" width="280" height="30" as="geometry"/>
                </mxCell>
                <mxCell id="AiQ3czS3Y79dKDK99Ic4-84" value="PK" style="shape=partialRectangle;connectable=0;fillColor=none;top=0;left=0;bottom=0;right=0;fontStyle=1;overflow=hidden;" parent="AiQ3czS3Y79dKDK99Ic4-83" vertex="1">
                    <mxGeometry width="30" height="30" as="geometry">
                        <mxRectangle width="30" height="30" as="alternateBounds"/>
                    </mxGeometry>
                </mxCell>
                <mxCell id="AiQ3czS3Y79dKDK99Ic4-85" value="Username - VARCHAR(30)" style="shape=partialRectangle;connectable=0;fillColor=none;top=0;left=0;bottom=0;right=0;align=left;spacingLeft=6;fontStyle=5;overflow=hidden;" parent="AiQ3czS3Y79dKDK99Ic4-83" vertex="1">
                    <mxGeometry x="30" width="250" height="30" as="geometry">
                        <mxRectangle width="250" height="30" as="alternateBounds"/>
                    </mxGeometry>
                </mxCell>
                <mxCell id="AiQ3czS3Y79dKDK99Ic4-86" value="" style="shape=partialRectangle;collapsible=0;dropTarget=0;pointerEvents=0;fillColor=none;top=0;left=0;bottom=0;right=0;points=[[0,0.5],[1,0.5]];portConstraint=eastwest;" parent="AiQ3czS3Y79dKDK99Ic4-82" vertex="1">
                    <mxGeometry y="60" width="280" height="30" as="geometry"/>
                </mxCell>
                <mxCell id="AiQ3czS3Y79dKDK99Ic4-87" value="" style="shape=partialRectangle;connectable=0;fillColor=none;top=0;left=0;bottom=0;right=0;editable=1;overflow=hidden;" parent="AiQ3czS3Y79dKDK99Ic4-86" vertex="1">
                    <mxGeometry width="30" height="30" as="geometry">
                        <mxRectangle width="30" height="30" as="alternateBounds"/>
                    </mxGeometry>
                </mxCell>
                <mxCell id="AiQ3czS3Y79dKDK99Ic4-88" value="Password - VARCHAR(30)" style="shape=partialRectangle;connectable=0;fillColor=none;top=0;left=0;bottom=0;right=0;align=left;spacingLeft=6;overflow=hidden;" parent="AiQ3czS3Y79dKDK99Ic4-86" vertex="1">
                    <mxGeometry x="30" width="250" height="30" as="geometry">
                        <mxRectangle width="250" height="30" as="alternateBounds"/>
                    </mxGeometry>
                </mxCell>
                <mxCell id="AiQ3czS3Y79dKDK99Ic4-89" value="" style="shape=partialRectangle;collapsible=0;dropTarget=0;pointerEvents=0;fillColor=none;top=0;left=0;bottom=0;right=0;points=[[0,0.5],[1,0.5]];portConstraint=eastwest;" parent="AiQ3czS3Y79dKDK99Ic4-82" vertex="1">
                    <mxGeometry y="90" width="280" height="30" as="geometry"/>
                </mxCell>
                <mxCell id="AiQ3czS3Y79dKDK99Ic4-90" value="" style="shape=partialRectangle;connectable=0;fillColor=none;top=0;left=0;bottom=0;right=0;editable=1;overflow=hidden;" parent="AiQ3czS3Y79dKDK99Ic4-89" vertex="1">
                    <mxGeometry width="30" height="30" as="geometry">
                        <mxRectangle width="30" height="30" as="alternateBounds"/>
                    </mxGeometry>
                </mxCell>
                <mxCell id="AiQ3czS3Y79dKDK99Ic4-91" value="Nombre - VARCHAR(60)" style="shape=partialRectangle;connectable=0;fillColor=none;top=0;left=0;bottom=0;right=0;align=left;spacingLeft=6;overflow=hidden;" parent="AiQ3czS3Y79dKDK99Ic4-89" vertex="1">
                    <mxGeometry x="30" width="250" height="30" as="geometry">
                        <mxRectangle width="250" height="30" as="alternateBounds"/>
                    </mxGeometry>
                </mxCell>
                <mxCell id="AiQ3czS3Y79dKDK99Ic4-92" value="" style="shape=partialRectangle;collapsible=0;dropTarget=0;pointerEvents=0;fillColor=none;top=0;left=0;bottom=0;right=0;points=[[0,0.5],[1,0.5]];portConstraint=eastwest;" parent="AiQ3czS3Y79dKDK99Ic4-82" vertex="1">
                    <mxGeometry y="120" width="280" height="30" as="geometry"/>
                </mxCell>
                <mxCell id="AiQ3czS3Y79dKDK99Ic4-93" value="" style="shape=partialRectangle;connectable=0;fillColor=none;top=0;left=0;bottom=0;right=0;editable=1;overflow=hidden;" parent="AiQ3czS3Y79dKDK99Ic4-92" vertex="1">
                    <mxGeometry width="30" height="30" as="geometry">
                        <mxRectangle width="30" height="30" as="alternateBounds"/>
                    </mxGeometry>
                </mxCell>
                <mxCell id="AiQ3czS3Y79dKDK99Ic4-94" value="Email - VARCHAR(50)" style="shape=partialRectangle;connectable=0;fillColor=none;top=0;left=0;bottom=0;right=0;align=left;spacingLeft=6;overflow=hidden;" parent="AiQ3czS3Y79dKDK99Ic4-92" vertex="1">
                    <mxGeometry x="30" width="250" height="30" as="geometry">
                        <mxRectangle width="250" height="30" as="alternateBounds"/>
                    </mxGeometry>
                </mxCell>
                <mxCell id="AiQ3czS3Y79dKDK99Ic4-95" value="" style="shape=partialRectangle;collapsible=0;dropTarget=0;pointerEvents=0;fillColor=none;top=0;left=0;bottom=0;right=0;points=[[0,0.5],[1,0.5]];portConstraint=eastwest;" parent="AiQ3czS3Y79dKDK99Ic4-82" vertex="1">
                    <mxGeometry y="150" width="280" height="30" as="geometry"/>
                </mxCell>
                <mxCell id="AiQ3czS3Y79dKDK99Ic4-96" value="" style="shape=partialRectangle;connectable=0;fillColor=none;top=0;left=0;bottom=0;right=0;editable=1;overflow=hidden;" parent="AiQ3czS3Y79dKDK99Ic4-95" vertex="1">
                    <mxGeometry width="30" height="30" as="geometry">
                        <mxRectangle width="30" height="30" as="alternateBounds"/>
                    </mxGeometry>
                </mxCell>
                <mxCell id="AiQ3czS3Y79dKDK99Ic4-97" value="Posición - VARCHAR(30)" style="shape=partialRectangle;connectable=0;fillColor=none;top=0;left=0;bottom=0;right=0;align=left;spacingLeft=6;overflow=hidden;" parent="AiQ3czS3Y79dKDK99Ic4-95" vertex="1">
                    <mxGeometry x="30" width="250" height="30" as="geometry">
                        <mxRectangle width="250" height="30" as="alternateBounds"/>
                    </mxGeometry>
                </mxCell>
                <mxCell id="AiQ3czS3Y79dKDK99Ic4-98" value="" style="shape=partialRectangle;collapsible=0;dropTarget=0;pointerEvents=0;fillColor=none;top=0;left=0;bottom=0;right=0;points=[[0,0.5],[1,0.5]];portConstraint=eastwest;" parent="AiQ3czS3Y79dKDK99Ic4-82" vertex="1">
                    <mxGeometry y="180" width="280" height="30" as="geometry"/>
                </mxCell>
                <mxCell id="AiQ3czS3Y79dKDK99Ic4-99" value="" style="shape=partialRectangle;connectable=0;fillColor=none;top=0;left=0;bottom=0;right=0;editable=1;overflow=hidden;" parent="AiQ3czS3Y79dKDK99Ic4-98" vertex="1">
                    <mxGeometry width="30" height="30" as="geometry">
                        <mxRectangle width="30" height="30" as="alternateBounds"/>
                    </mxGeometry>
                </mxCell>
                <mxCell id="AiQ3czS3Y79dKDK99Ic4-100" value="Temporal - VARCHAR(20)" style="shape=partialRectangle;connectable=0;fillColor=none;top=0;left=0;bottom=0;right=0;align=left;spacingLeft=6;overflow=hidden;" parent="AiQ3czS3Y79dKDK99Ic4-98" vertex="1">
                    <mxGeometry x="30" width="250" height="30" as="geometry">
                        <mxRectangle width="250" height="30" as="alternateBounds"/>
                    </mxGeometry>
                </mxCell>
                <mxCell id="AiQ3czS3Y79dKDK99Ic4-102" value="" style="edgeStyle=entityRelationEdgeStyle;fontSize=12;html=1;endArrow=none;exitX=1;exitY=0.5;exitDx=0;exitDy=0;startArrow=ERoneToMany;startFill=0;endFill=0;" parent="1" source="AiQ3czS3Y79dKDK99Ic4-66" target="AiQ3czS3Y79dKDK99Ic4-83" edge="1">
                    <mxGeometry width="100" height="100" relative="1" as="geometry">
                        <mxPoint x="393" y="966" as="sourcePoint"/>
                        <mxPoint x="493" y="866" as="targetPoint"/>
                    </mxGeometry>
                </mxCell>
                <mxCell id="AiQ3czS3Y79dKDK99Ic4-103" value="RECURSOS" style="shape=table;startSize=30;container=1;collapsible=1;childLayout=tableLayout;fixedRows=1;rowLines=0;fontStyle=1;align=center;resizeLast=1;" parent="1" vertex="1">
                    <mxGeometry x="303" y="386" width="210" height="230.00000000000023" as="geometry"/>
                </mxCell>
                <mxCell id="AiQ3czS3Y79dKDK99Ic4-104" value="" style="shape=partialRectangle;collapsible=0;dropTarget=0;pointerEvents=0;fillColor=none;top=0;left=0;bottom=1;right=0;points=[[0,0.5],[1,0.5]];portConstraint=eastwest;" parent="AiQ3czS3Y79dKDK99Ic4-103" vertex="1">
                    <mxGeometry y="30" width="210" height="30" as="geometry"/>
                </mxCell>
                <mxCell id="AiQ3czS3Y79dKDK99Ic4-105" value="PK" style="shape=partialRectangle;connectable=0;fillColor=none;top=0;left=0;bottom=0;right=0;fontStyle=1;overflow=hidden;" parent="AiQ3czS3Y79dKDK99Ic4-104" vertex="1">
                    <mxGeometry width="30" height="30" as="geometry">
                        <mxRectangle width="30" height="30" as="alternateBounds"/>
                    </mxGeometry>
                </mxCell>
                <mxCell id="AiQ3czS3Y79dKDK99Ic4-106" value="ID - INT AUTOINCREMENT" style="shape=partialRectangle;connectable=0;fillColor=none;top=0;left=0;bottom=0;right=0;align=left;spacingLeft=6;fontStyle=5;overflow=hidden;" parent="AiQ3czS3Y79dKDK99Ic4-104" vertex="1">
                    <mxGeometry x="30" width="180" height="30" as="geometry">
                        <mxRectangle width="180" height="30" as="alternateBounds"/>
                    </mxGeometry>
                </mxCell>
                <mxCell id="AiQ3czS3Y79dKDK99Ic4-107" value="" style="shape=partialRectangle;collapsible=0;dropTarget=0;pointerEvents=0;fillColor=none;top=0;left=0;bottom=0;right=0;points=[[0,0.5],[1,0.5]];portConstraint=eastwest;" parent="AiQ3czS3Y79dKDK99Ic4-103" vertex="1">
                    <mxGeometry y="60" width="210" height="30" as="geometry"/>
                </mxCell>
                <mxCell id="AiQ3czS3Y79dKDK99Ic4-108" value="" style="shape=partialRectangle;connectable=0;fillColor=none;top=0;left=0;bottom=0;right=0;editable=1;overflow=hidden;" parent="AiQ3czS3Y79dKDK99Ic4-107" vertex="1">
                    <mxGeometry width="30" height="30" as="geometry">
                        <mxRectangle width="30" height="30" as="alternateBounds"/>
                    </mxGeometry>
                </mxCell>
                <mxCell id="AiQ3czS3Y79dKDK99Ic4-109" value="Fecha - DATETIME" style="shape=partialRectangle;connectable=0;fillColor=none;top=0;left=0;bottom=0;right=0;align=left;spacingLeft=6;overflow=hidden;" parent="AiQ3czS3Y79dKDK99Ic4-107" vertex="1">
                    <mxGeometry x="30" width="180" height="30" as="geometry">
                        <mxRectangle width="180" height="30" as="alternateBounds"/>
                    </mxGeometry>
                </mxCell>
                <mxCell id="AiQ3czS3Y79dKDK99Ic4-110" value="" style="shape=partialRectangle;collapsible=0;dropTarget=0;pointerEvents=0;fillColor=none;top=0;left=0;bottom=0;right=0;points=[[0,0.5],[1,0.5]];portConstraint=eastwest;" parent="AiQ3czS3Y79dKDK99Ic4-103" vertex="1">
                    <mxGeometry y="90" width="210" height="40" as="geometry"/>
                </mxCell>
                <mxCell id="AiQ3czS3Y79dKDK99Ic4-111" value="" style="shape=partialRectangle;connectable=0;fillColor=none;top=0;left=0;bottom=0;right=0;editable=1;overflow=hidden;" parent="AiQ3czS3Y79dKDK99Ic4-110" vertex="1">
                    <mxGeometry width="30" height="40" as="geometry">
                        <mxRectangle width="30" height="40" as="alternateBounds"/>
                    </mxGeometry>
                </mxCell>
                <mxCell id="AiQ3czS3Y79dKDK99Ic4-112" value="Versión - INT" style="shape=partialRectangle;connectable=0;fillColor=none;top=0;left=0;bottom=0;right=0;align=left;spacingLeft=6;overflow=hidden;" parent="AiQ3czS3Y79dKDK99Ic4-110" vertex="1">
                    <mxGeometry x="30" width="180" height="40" as="geometry">
                        <mxRectangle width="180" height="40" as="alternateBounds"/>
                    </mxGeometry>
                </mxCell>
                <mxCell id="VlidqlFzQLrw7DeZYlY--29" value="" style="shape=partialRectangle;collapsible=0;dropTarget=0;pointerEvents=0;fillColor=none;top=0;left=0;bottom=0;right=0;points=[[0,0.5],[1,0.5]];portConstraint=eastwest;" vertex="1" parent="AiQ3czS3Y79dKDK99Ic4-103">
                    <mxGeometry y="130" width="210" height="30" as="geometry"/>
                </mxCell>
                <mxCell id="VlidqlFzQLrw7DeZYlY--30" value="" style="shape=partialRectangle;connectable=0;fillColor=none;top=0;left=0;bottom=0;right=0;editable=1;overflow=hidden;" vertex="1" parent="VlidqlFzQLrw7DeZYlY--29">
                    <mxGeometry width="30" height="30" as="geometry">
                        <mxRectangle width="30" height="30" as="alternateBounds"/>
                    </mxGeometry>
                </mxCell>
                <mxCell id="VlidqlFzQLrw7DeZYlY--31" value="Archivo - VARCHAR(255)" style="shape=partialRectangle;connectable=0;fillColor=none;top=0;left=0;bottom=0;right=0;align=left;spacingLeft=6;overflow=hidden;" vertex="1" parent="VlidqlFzQLrw7DeZYlY--29">
                    <mxGeometry x="30" width="180" height="30" as="geometry">
                        <mxRectangle width="180" height="30" as="alternateBounds"/>
                    </mxGeometry>
                </mxCell>
                <mxCell id="AiQ3czS3Y79dKDK99Ic4-113" value="" style="shape=partialRectangle;collapsible=0;dropTarget=0;pointerEvents=0;fillColor=none;top=0;left=0;bottom=0;right=0;points=[[0,0.5],[1,0.5]];portConstraint=eastwest;" parent="AiQ3czS3Y79dKDK99Ic4-103" vertex="1">
                    <mxGeometry y="160" width="210" height="30" as="geometry"/>
                </mxCell>
                <mxCell id="AiQ3czS3Y79dKDK99Ic4-114" value="" style="shape=partialRectangle;connectable=0;fillColor=none;top=0;left=0;bottom=0;right=0;editable=1;overflow=hidden;" parent="AiQ3czS3Y79dKDK99Ic4-113" vertex="1">
                    <mxGeometry width="30" height="30" as="geometry">
                        <mxRectangle width="30" height="30" as="alternateBounds"/>
                    </mxGeometry>
                </mxCell>
                <mxCell id="AiQ3czS3Y79dKDK99Ic4-115" value="Tipo - VARHAR(120)" style="shape=partialRectangle;connectable=0;fillColor=none;top=0;left=0;bottom=0;right=0;align=left;spacingLeft=6;overflow=hidden;" parent="AiQ3czS3Y79dKDK99Ic4-113" vertex="1">
                    <mxGeometry x="30" width="180" height="30" as="geometry">
                        <mxRectangle width="180" height="30" as="alternateBounds"/>
                    </mxGeometry>
                </mxCell>
                <mxCell id="AiQ3czS3Y79dKDK99Ic4-116" value="" style="shape=partialRectangle;collapsible=0;dropTarget=0;pointerEvents=0;fillColor=none;top=0;left=0;bottom=0;right=0;points=[[0,0.5],[1,0.5]];portConstraint=eastwest;" parent="AiQ3czS3Y79dKDK99Ic4-103" vertex="1">
                    <mxGeometry y="190" width="210" height="30" as="geometry"/>
                </mxCell>
                <mxCell id="AiQ3czS3Y79dKDK99Ic4-117" value="FK" style="shape=partialRectangle;connectable=0;fillColor=none;top=0;left=0;bottom=0;right=0;editable=1;overflow=hidden;" parent="AiQ3czS3Y79dKDK99Ic4-116" vertex="1">
                    <mxGeometry width="30" height="30" as="geometry">
                        <mxRectangle width="30" height="30" as="alternateBounds"/>
                    </mxGeometry>
                </mxCell>
                <mxCell id="AiQ3czS3Y79dKDK99Ic4-118" value="Equipo - VARCHAR(40)" style="shape=partialRectangle;connectable=0;fillColor=none;top=0;left=0;bottom=0;right=0;align=left;spacingLeft=6;overflow=hidden;" parent="AiQ3czS3Y79dKDK99Ic4-116" vertex="1">
                    <mxGeometry x="30" width="180" height="30" as="geometry">
                        <mxRectangle width="180" height="30" as="alternateBounds"/>
                    </mxGeometry>
                </mxCell>
                <mxCell id="AiQ3czS3Y79dKDK99Ic4-120" value="" style="edgeStyle=entityRelationEdgeStyle;fontSize=12;html=1;endArrow=ERoneToMany;entryX=1;entryY=0.5;entryDx=0;entryDy=0;exitX=0;exitY=0.5;exitDx=0;exitDy=0;" parent="1" source="AiQ3czS3Y79dKDK99Ic4-2" target="AiQ3czS3Y79dKDK99Ic4-116" edge="1">
                    <mxGeometry width="100" height="100" relative="1" as="geometry">
                        <mxPoint x="503" y="446" as="sourcePoint"/>
                        <mxPoint x="603" y="346" as="targetPoint"/>
                    </mxGeometry>
                </mxCell>
                <mxCell id="JfEdrEpB9EilfCzJfJw5-1" value="PRESTAMOS" style="shape=table;startSize=30;container=1;collapsible=1;childLayout=tableLayout;fixedRows=1;rowLines=0;fontStyle=1;align=center;resizeLast=1;" parent="1" vertex="1">
                    <mxGeometry x="993" y="486" width="280" height="430" as="geometry"/>
                </mxCell>
                <mxCell id="JfEdrEpB9EilfCzJfJw5-2" value="" style="shape=partialRectangle;collapsible=0;dropTarget=0;pointerEvents=0;fillColor=none;top=0;left=0;bottom=1;right=0;points=[[0,0.5],[1,0.5]];portConstraint=eastwest;" parent="JfEdrEpB9EilfCzJfJw5-1" vertex="1">
                    <mxGeometry y="30" width="280" height="30" as="geometry"/>
                </mxCell>
                <mxCell id="JfEdrEpB9EilfCzJfJw5-3" value="PK" style="shape=partialRectangle;connectable=0;fillColor=none;top=0;left=0;bottom=0;right=0;fontStyle=1;overflow=hidden;" parent="JfEdrEpB9EilfCzJfJw5-2" vertex="1">
                    <mxGeometry width="30" height="30" as="geometry">
                        <mxRectangle width="30" height="30" as="alternateBounds"/>
                    </mxGeometry>
                </mxCell>
                <mxCell id="JfEdrEpB9EilfCzJfJw5-4" value="ID - INT AUTOINCREMENT" style="shape=partialRectangle;connectable=0;fillColor=none;top=0;left=0;bottom=0;right=0;align=left;spacingLeft=6;fontStyle=5;overflow=hidden;" parent="JfEdrEpB9EilfCzJfJw5-2" vertex="1">
                    <mxGeometry x="30" width="250" height="30" as="geometry">
                        <mxRectangle width="250" height="30" as="alternateBounds"/>
                    </mxGeometry>
                </mxCell>
                <mxCell id="JfEdrEpB9EilfCzJfJw5-5" value="" style="shape=partialRectangle;collapsible=0;dropTarget=0;pointerEvents=0;fillColor=none;top=0;left=0;bottom=0;right=0;points=[[0,0.5],[1,0.5]];portConstraint=eastwest;" parent="JfEdrEpB9EilfCzJfJw5-1" vertex="1">
                    <mxGeometry y="60" width="280" height="30" as="geometry"/>
                </mxCell>
                <mxCell id="JfEdrEpB9EilfCzJfJw5-6" value="" style="shape=partialRectangle;connectable=0;fillColor=none;top=0;left=0;bottom=0;right=0;editable=1;overflow=hidden;" parent="JfEdrEpB9EilfCzJfJw5-5" vertex="1">
                    <mxGeometry width="30" height="30" as="geometry">
                        <mxRectangle width="30" height="30" as="alternateBounds"/>
                    </mxGeometry>
                </mxCell>
                <mxCell id="JfEdrEpB9EilfCzJfJw5-7" value="Estado - VARCHAR(20)" style="shape=partialRectangle;connectable=0;fillColor=none;top=0;left=0;bottom=0;right=0;align=left;spacingLeft=6;overflow=hidden;" parent="JfEdrEpB9EilfCzJfJw5-5" vertex="1">
                    <mxGeometry x="30" width="250" height="30" as="geometry">
                        <mxRectangle width="250" height="30" as="alternateBounds"/>
                    </mxGeometry>
                </mxCell>
                <mxCell id="JfEdrEpB9EilfCzJfJw5-8" value="" style="shape=partialRectangle;collapsible=0;dropTarget=0;pointerEvents=0;fillColor=none;top=0;left=0;bottom=0;right=0;points=[[0,0.5],[1,0.5]];portConstraint=eastwest;" parent="JfEdrEpB9EilfCzJfJw5-1" vertex="1">
                    <mxGeometry y="90" width="280" height="30" as="geometry"/>
                </mxCell>
                <mxCell id="JfEdrEpB9EilfCzJfJw5-9" value="" style="shape=partialRectangle;connectable=0;fillColor=none;top=0;left=0;bottom=0;right=0;editable=1;overflow=hidden;" parent="JfEdrEpB9EilfCzJfJw5-8" vertex="1">
                    <mxGeometry width="30" height="30" as="geometry">
                        <mxRectangle width="30" height="30" as="alternateBounds"/>
                    </mxGeometry>
                </mxCell>
                <mxCell id="JfEdrEpB9EilfCzJfJw5-10" value="Fecha Entrega - DATETIME" style="shape=partialRectangle;connectable=0;fillColor=none;top=0;left=0;bottom=0;right=0;align=left;spacingLeft=6;overflow=hidden;" parent="JfEdrEpB9EilfCzJfJw5-8" vertex="1">
                    <mxGeometry x="30" width="250" height="30" as="geometry">
                        <mxRectangle width="250" height="30" as="alternateBounds"/>
                    </mxGeometry>
                </mxCell>
                <mxCell id="JfEdrEpB9EilfCzJfJw5-11" value="" style="shape=partialRectangle;collapsible=0;dropTarget=0;pointerEvents=0;fillColor=none;top=0;left=0;bottom=0;right=0;points=[[0,0.5],[1,0.5]];portConstraint=eastwest;" parent="JfEdrEpB9EilfCzJfJw5-1" vertex="1">
                    <mxGeometry y="120" width="280" height="30" as="geometry"/>
                </mxCell>
                <mxCell id="JfEdrEpB9EilfCzJfJw5-12" value="" style="shape=partialRectangle;connectable=0;fillColor=none;top=0;left=0;bottom=0;right=0;editable=1;overflow=hidden;" parent="JfEdrEpB9EilfCzJfJw5-11" vertex="1">
                    <mxGeometry width="30" height="30" as="geometry">
                        <mxRectangle width="30" height="30" as="alternateBounds"/>
                    </mxGeometry>
                </mxCell>
                <mxCell id="JfEdrEpB9EilfCzJfJw5-13" value="Fecha Retorno - DATETIME" style="shape=partialRectangle;connectable=0;fillColor=none;top=0;left=0;bottom=0;right=0;align=left;spacingLeft=6;overflow=hidden;" parent="JfEdrEpB9EilfCzJfJw5-11" vertex="1">
                    <mxGeometry x="30" width="250" height="30" as="geometry">
                        <mxRectangle width="250" height="30" as="alternateBounds"/>
                    </mxGeometry>
                </mxCell>
                <mxCell id="JfEdrEpB9EilfCzJfJw5-14" value="" style="shape=partialRectangle;collapsible=0;dropTarget=0;pointerEvents=0;fillColor=none;top=0;left=0;bottom=0;right=0;points=[[0,0.5],[1,0.5]];portConstraint=eastwest;" parent="JfEdrEpB9EilfCzJfJw5-1" vertex="1">
                    <mxGeometry y="150" width="280" height="40" as="geometry"/>
                </mxCell>
                <mxCell id="JfEdrEpB9EilfCzJfJw5-15" value="" style="shape=partialRectangle;connectable=0;fillColor=none;top=0;left=0;bottom=0;right=0;editable=1;overflow=hidden;" parent="JfEdrEpB9EilfCzJfJw5-14" vertex="1">
                    <mxGeometry width="30" height="40" as="geometry">
                        <mxRectangle width="30" height="40" as="alternateBounds"/>
                    </mxGeometry>
                </mxCell>
                <mxCell id="JfEdrEpB9EilfCzJfJw5-16" value="Fecha Compromiso - DATE" style="shape=partialRectangle;connectable=0;fillColor=none;top=0;left=0;bottom=0;right=0;align=left;spacingLeft=6;overflow=hidden;" parent="JfEdrEpB9EilfCzJfJw5-14" vertex="1">
                    <mxGeometry x="30" width="250" height="40" as="geometry">
                        <mxRectangle width="250" height="40" as="alternateBounds"/>
                    </mxGeometry>
                </mxCell>
                <mxCell id="JfEdrEpB9EilfCzJfJw5-17" value="" style="shape=partialRectangle;collapsible=0;dropTarget=0;pointerEvents=0;fillColor=none;top=0;left=0;bottom=0;right=0;points=[[0,0.5],[1,0.5]];portConstraint=eastwest;" parent="JfEdrEpB9EilfCzJfJw5-1" vertex="1">
                    <mxGeometry y="190" width="280" height="30" as="geometry"/>
                </mxCell>
                <mxCell id="JfEdrEpB9EilfCzJfJw5-18" value="" style="shape=partialRectangle;connectable=0;fillColor=none;top=0;left=0;bottom=0;right=0;editable=1;overflow=hidden;" parent="JfEdrEpB9EilfCzJfJw5-17" vertex="1">
                    <mxGeometry width="30" height="30" as="geometry">
                        <mxRectangle width="30" height="30" as="alternateBounds"/>
                    </mxGeometry>
                </mxCell>
                <mxCell id="JfEdrEpB9EilfCzJfJw5-19" value="Notas VARCHAR(120)" style="shape=partialRectangle;connectable=0;fillColor=none;top=0;left=0;bottom=0;right=0;align=left;spacingLeft=6;overflow=hidden;" parent="JfEdrEpB9EilfCzJfJw5-17" vertex="1">
                    <mxGeometry x="30" width="250" height="30" as="geometry">
                        <mxRectangle width="250" height="30" as="alternateBounds"/>
                    </mxGeometry>
                </mxCell>
                <mxCell id="JfEdrEpB9EilfCzJfJw5-47" value="" style="shape=partialRectangle;collapsible=0;dropTarget=0;pointerEvents=0;fillColor=none;top=0;left=0;bottom=0;right=0;points=[[0,0.5],[1,0.5]];portConstraint=eastwest;" parent="JfEdrEpB9EilfCzJfJw5-1" vertex="1">
                    <mxGeometry y="220" width="280" height="30" as="geometry"/>
                </mxCell>
                <mxCell id="JfEdrEpB9EilfCzJfJw5-48" value="" style="shape=partialRectangle;connectable=0;fillColor=none;top=0;left=0;bottom=0;right=0;editable=1;overflow=hidden;" parent="JfEdrEpB9EilfCzJfJw5-47" vertex="1">
                    <mxGeometry width="30" height="30" as="geometry">
                        <mxRectangle width="30" height="30" as="alternateBounds"/>
                    </mxGeometry>
                </mxCell>
                <mxCell id="JfEdrEpB9EilfCzJfJw5-49" value="Operador - VARCHAR(40)" style="shape=partialRectangle;connectable=0;fillColor=none;top=0;left=0;bottom=0;right=0;align=left;spacingLeft=6;overflow=hidden;" parent="JfEdrEpB9EilfCzJfJw5-47" vertex="1">
                    <mxGeometry x="30" width="250" height="30" as="geometry">
                        <mxRectangle width="250" height="30" as="alternateBounds"/>
                    </mxGeometry>
                </mxCell>
                <mxCell id="Gl7yEqmmaUvTi7VhZGEq-1" value="" style="shape=partialRectangle;collapsible=0;dropTarget=0;pointerEvents=0;fillColor=none;top=0;left=0;bottom=0;right=0;points=[[0,0.5],[1,0.5]];portConstraint=eastwest;" parent="JfEdrEpB9EilfCzJfJw5-1" vertex="1">
                    <mxGeometry y="250" width="280" height="30" as="geometry"/>
                </mxCell>
                <mxCell id="Gl7yEqmmaUvTi7VhZGEq-2" value="" style="shape=partialRectangle;connectable=0;fillColor=none;top=0;left=0;bottom=0;right=0;editable=1;overflow=hidden;" parent="Gl7yEqmmaUvTi7VhZGEq-1" vertex="1">
                    <mxGeometry width="30" height="30" as="geometry">
                        <mxRectangle width="30" height="30" as="alternateBounds"/>
                    </mxGeometry>
                </mxCell>
                <mxCell id="Gl7yEqmmaUvTi7VhZGEq-3" value="Operador Regresa - VARCHAR(40)" style="shape=partialRectangle;connectable=0;fillColor=none;top=0;left=0;bottom=0;right=0;align=left;spacingLeft=6;overflow=hidden;" parent="Gl7yEqmmaUvTi7VhZGEq-1" vertex="1">
                    <mxGeometry x="30" width="250" height="30" as="geometry">
                        <mxRectangle width="250" height="30" as="alternateBounds"/>
                    </mxGeometry>
                </mxCell>
                <mxCell id="JfEdrEpB9EilfCzJfJw5-20" value="" style="shape=partialRectangle;collapsible=0;dropTarget=0;pointerEvents=0;fillColor=none;top=0;left=0;bottom=0;right=0;points=[[0,0.5],[1,0.5]];portConstraint=eastwest;" parent="JfEdrEpB9EilfCzJfJw5-1" vertex="1">
                    <mxGeometry y="280" width="280" height="30" as="geometry"/>
                </mxCell>
                <mxCell id="JfEdrEpB9EilfCzJfJw5-21" value="FK" style="shape=partialRectangle;connectable=0;fillColor=none;top=0;left=0;bottom=0;right=0;editable=1;overflow=hidden;" parent="JfEdrEpB9EilfCzJfJw5-20" vertex="1">
                    <mxGeometry width="30" height="30" as="geometry">
                        <mxRectangle width="30" height="30" as="alternateBounds"/>
                    </mxGeometry>
                </mxCell>
                <mxCell id="JfEdrEpB9EilfCzJfJw5-22" value="Equipo - VARCHAR(40)" style="shape=partialRectangle;connectable=0;fillColor=none;top=0;left=0;bottom=0;right=0;align=left;spacingLeft=6;overflow=hidden;" parent="JfEdrEpB9EilfCzJfJw5-20" vertex="1">
                    <mxGeometry x="30" width="250" height="30" as="geometry">
                        <mxRectangle width="250" height="30" as="alternateBounds"/>
                    </mxGeometry>
                </mxCell>
                <mxCell id="JfEdrEpB9EilfCzJfJw5-23" value="" style="shape=partialRectangle;collapsible=0;dropTarget=0;pointerEvents=0;fillColor=none;top=0;left=0;bottom=0;right=0;points=[[0,0.5],[1,0.5]];portConstraint=eastwest;" parent="JfEdrEpB9EilfCzJfJw5-1" vertex="1">
                    <mxGeometry y="310" width="280" height="30" as="geometry"/>
                </mxCell>
                <mxCell id="JfEdrEpB9EilfCzJfJw5-24" value="FK" style="shape=partialRectangle;connectable=0;fillColor=none;top=0;left=0;bottom=0;right=0;editable=1;overflow=hidden;" parent="JfEdrEpB9EilfCzJfJw5-23" vertex="1">
                    <mxGeometry width="30" height="30" as="geometry">
                        <mxRectangle width="30" height="30" as="alternateBounds"/>
                    </mxGeometry>
                </mxCell>
                <mxCell id="JfEdrEpB9EilfCzJfJw5-25" value="Prestatario VARCHAR(30)" style="shape=partialRectangle;connectable=0;fillColor=none;top=0;left=0;bottom=0;right=0;align=left;spacingLeft=6;overflow=hidden;" parent="JfEdrEpB9EilfCzJfJw5-23" vertex="1">
                    <mxGeometry x="30" width="250" height="30" as="geometry">
                        <mxRectangle width="250" height="30" as="alternateBounds"/>
                    </mxGeometry>
                </mxCell>
                <mxCell id="JfEdrEpB9EilfCzJfJw5-26" value="" style="shape=partialRectangle;collapsible=0;dropTarget=0;pointerEvents=0;fillColor=none;top=0;left=0;bottom=0;right=0;points=[[0,0.5],[1,0.5]];portConstraint=eastwest;" parent="JfEdrEpB9EilfCzJfJw5-1" vertex="1">
                    <mxGeometry y="340" width="280" height="30" as="geometry"/>
                </mxCell>
                <mxCell id="JfEdrEpB9EilfCzJfJw5-27" value="FK" style="shape=partialRectangle;connectable=0;fillColor=none;top=0;left=0;bottom=0;right=0;editable=1;overflow=hidden;" parent="JfEdrEpB9EilfCzJfJw5-26" vertex="1">
                    <mxGeometry width="30" height="30" as="geometry">
                        <mxRectangle width="30" height="30" as="alternateBounds"/>
                    </mxGeometry>
                </mxCell>
                <mxCell id="JfEdrEpB9EilfCzJfJw5-28" value="Retorna - VARCHAR(30)" style="shape=partialRectangle;connectable=0;fillColor=none;top=0;left=0;bottom=0;right=0;align=left;spacingLeft=6;overflow=hidden;" parent="JfEdrEpB9EilfCzJfJw5-26" vertex="1">
                    <mxGeometry x="30" width="250" height="30" as="geometry">
                        <mxRectangle width="250" height="30" as="alternateBounds"/>
                    </mxGeometry>
                </mxCell>
                <mxCell id="JfEdrEpB9EilfCzJfJw5-50" value="" style="shape=partialRectangle;collapsible=0;dropTarget=0;pointerEvents=0;fillColor=none;top=0;left=0;bottom=0;right=0;points=[[0,0.5],[1,0.5]];portConstraint=eastwest;" parent="JfEdrEpB9EilfCzJfJw5-1" vertex="1">
                    <mxGeometry y="370" width="280" height="30" as="geometry"/>
                </mxCell>
                <mxCell id="JfEdrEpB9EilfCzJfJw5-51" value="FK" style="shape=partialRectangle;connectable=0;fillColor=none;top=0;left=0;bottom=0;right=0;fontStyle=0;overflow=hidden;" parent="JfEdrEpB9EilfCzJfJw5-50" vertex="1">
                    <mxGeometry width="30" height="30" as="geometry">
                        <mxRectangle width="30" height="30" as="alternateBounds"/>
                    </mxGeometry>
                </mxCell>
                <mxCell id="JfEdrEpB9EilfCzJfJw5-52" value="Entrega - VARCHAR(30)" style="shape=partialRectangle;connectable=0;fillColor=none;top=0;left=0;bottom=0;right=0;align=left;spacingLeft=6;fontStyle=0;overflow=hidden;" parent="JfEdrEpB9EilfCzJfJw5-50" vertex="1">
                    <mxGeometry x="30" width="250" height="30" as="geometry">
                        <mxRectangle width="250" height="30" as="alternateBounds"/>
                    </mxGeometry>
                </mxCell>
                <mxCell id="JfEdrEpB9EilfCzJfJw5-32" value="" style="shape=partialRectangle;collapsible=0;dropTarget=0;pointerEvents=0;fillColor=none;top=0;left=0;bottom=0;right=0;points=[[0,0.5],[1,0.5]];portConstraint=eastwest;" parent="JfEdrEpB9EilfCzJfJw5-1" vertex="1">
                    <mxGeometry y="400" width="280" height="30" as="geometry"/>
                </mxCell>
                <mxCell id="JfEdrEpB9EilfCzJfJw5-33" value="FK" style="shape=partialRectangle;connectable=0;fillColor=none;top=0;left=0;bottom=0;right=0;editable=1;overflow=hidden;" parent="JfEdrEpB9EilfCzJfJw5-32" vertex="1">
                    <mxGeometry width="30" height="30" as="geometry">
                        <mxRectangle width="30" height="30" as="alternateBounds"/>
                    </mxGeometry>
                </mxCell>
                <mxCell id="JfEdrEpB9EilfCzJfJw5-34" value="Recibe - VARCHAR(30)" style="shape=partialRectangle;connectable=0;fillColor=none;top=0;left=0;bottom=0;right=0;align=left;spacingLeft=6;overflow=hidden;" parent="JfEdrEpB9EilfCzJfJw5-32" vertex="1">
                    <mxGeometry x="30" width="250" height="30" as="geometry">
                        <mxRectangle width="250" height="30" as="alternateBounds"/>
                    </mxGeometry>
                </mxCell>
                <mxCell id="JfEdrEpB9EilfCzJfJw5-53" value="" style="edgeStyle=entityRelationEdgeStyle;fontSize=12;html=1;endArrow=ERoneToMany;entryX=0;entryY=0.5;entryDx=0;entryDy=0;" parent="1" source="AiQ3czS3Y79dKDK99Ic4-2" target="JfEdrEpB9EilfCzJfJw5-20" edge="1">
                    <mxGeometry width="100" height="100" relative="1" as="geometry">
                        <mxPoint x="543" y="456" as="sourcePoint"/>
                        <mxPoint x="563" y="776" as="targetPoint"/>
                    </mxGeometry>
                </mxCell>
                <mxCell id="JfEdrEpB9EilfCzJfJw5-54" value="" style="edgeStyle=entityRelationEdgeStyle;fontSize=12;html=1;endArrow=ERoneToMany;entryX=0;entryY=0.5;entryDx=0;entryDy=0;exitX=1;exitY=0.5;exitDx=0;exitDy=0;" parent="1" source="AiQ3czS3Y79dKDK99Ic4-83" target="JfEdrEpB9EilfCzJfJw5-23" edge="1">
                    <mxGeometry width="100" height="100" relative="1" as="geometry">
                        <mxPoint x="443" y="1006" as="sourcePoint"/>
                        <mxPoint x="503" y="816" as="targetPoint"/>
                    </mxGeometry>
                </mxCell>
                <mxCell id="JfEdrEpB9EilfCzJfJw5-55" value="" style="edgeStyle=entityRelationEdgeStyle;fontSize=12;html=1;endArrow=ERoneToMany;entryX=0;entryY=0.5;entryDx=0;entryDy=0;exitX=1;exitY=0.5;exitDx=0;exitDy=0;" parent="1" source="AiQ3czS3Y79dKDK99Ic4-83" target="JfEdrEpB9EilfCzJfJw5-26" edge="1">
                    <mxGeometry width="100" height="100" relative="1" as="geometry">
                        <mxPoint x="363" y="956" as="sourcePoint"/>
                        <mxPoint x="463" y="856" as="targetPoint"/>
                    </mxGeometry>
                </mxCell>
                <mxCell id="JfEdrEpB9EilfCzJfJw5-56" value="" style="edgeStyle=entityRelationEdgeStyle;fontSize=12;html=1;endArrow=ERoneToMany;entryX=0;entryY=0.5;entryDx=0;entryDy=0;exitX=1;exitY=0.5;exitDx=0;exitDy=0;" parent="1" source="AiQ3czS3Y79dKDK99Ic4-83" target="JfEdrEpB9EilfCzJfJw5-50" edge="1">
                    <mxGeometry width="100" height="100" relative="1" as="geometry">
                        <mxPoint x="313" y="966" as="sourcePoint"/>
                        <mxPoint x="413" y="866" as="targetPoint"/>
                    </mxGeometry>
                </mxCell>
                <mxCell id="JfEdrEpB9EilfCzJfJw5-57" value="" style="edgeStyle=entityRelationEdgeStyle;fontSize=12;html=1;endArrow=ERoneToMany;entryX=0;entryY=0.5;entryDx=0;entryDy=0;exitX=1;exitY=0.5;exitDx=0;exitDy=0;" parent="1" source="AiQ3czS3Y79dKDK99Ic4-83" target="JfEdrEpB9EilfCzJfJw5-32" edge="1">
                    <mxGeometry width="100" height="100" relative="1" as="geometry">
                        <mxPoint x="393" y="956" as="sourcePoint"/>
                        <mxPoint x="493" y="856" as="targetPoint"/>
                    </mxGeometry>
                </mxCell>
                <mxCell id="Gl7yEqmmaUvTi7VhZGEq-4" value="RESPONSABLES" style="shape=table;startSize=30;container=1;collapsible=1;childLayout=tableLayout;fixedRows=1;rowLines=0;fontStyle=1;align=center;resizeLast=1;" parent="1" vertex="1">
                    <mxGeometry x="303" y="656" width="210" height="90" as="geometry"/>
                </mxCell>
                <mxCell id="Gl7yEqmmaUvTi7VhZGEq-5" value="" style="shape=partialRectangle;collapsible=0;dropTarget=0;pointerEvents=0;fillColor=none;top=0;left=0;bottom=0;right=0;points=[[0,0.5],[1,0.5]];portConstraint=eastwest;" parent="Gl7yEqmmaUvTi7VhZGEq-4" vertex="1">
                    <mxGeometry y="30" width="210" height="30" as="geometry"/>
                </mxCell>
                <mxCell id="Gl7yEqmmaUvTi7VhZGEq-6" value="PK,FK1" style="shape=partialRectangle;connectable=0;fillColor=none;top=0;left=0;bottom=0;right=0;fontStyle=1;overflow=hidden;" parent="Gl7yEqmmaUvTi7VhZGEq-5" vertex="1">
                    <mxGeometry width="60" height="30" as="geometry">
                        <mxRectangle width="60" height="30" as="alternateBounds"/>
                    </mxGeometry>
                </mxCell>
                <mxCell id="Gl7yEqmmaUvTi7VhZGEq-7" value="Equipo - VARCHAR(40)" style="shape=partialRectangle;connectable=0;fillColor=none;top=0;left=0;bottom=0;right=0;align=left;spacingLeft=6;fontStyle=5;overflow=hidden;" parent="Gl7yEqmmaUvTi7VhZGEq-5" vertex="1">
                    <mxGeometry x="60" width="150" height="30" as="geometry">
                        <mxRectangle width="150" height="30" as="alternateBounds"/>
                    </mxGeometry>
                </mxCell>
                <mxCell id="Gl7yEqmmaUvTi7VhZGEq-8" value="" style="shape=partialRectangle;collapsible=0;dropTarget=0;pointerEvents=0;fillColor=none;top=0;left=0;bottom=1;right=0;points=[[0,0.5],[1,0.5]];portConstraint=eastwest;" parent="Gl7yEqmmaUvTi7VhZGEq-4" vertex="1">
                    <mxGeometry y="60" width="210" height="30" as="geometry"/>
                </mxCell>
                <mxCell id="Gl7yEqmmaUvTi7VhZGEq-9" value="PK,FK2" style="shape=partialRectangle;connectable=0;fillColor=none;top=0;left=0;bottom=0;right=0;fontStyle=1;overflow=hidden;" parent="Gl7yEqmmaUvTi7VhZGEq-8" vertex="1">
                    <mxGeometry width="60" height="30" as="geometry">
                        <mxRectangle width="60" height="30" as="alternateBounds"/>
                    </mxGeometry>
                </mxCell>
                <mxCell id="Gl7yEqmmaUvTi7VhZGEq-10" value="Usuario - VARCHAR(30)" style="shape=partialRectangle;connectable=0;fillColor=none;top=0;left=0;bottom=0;right=0;align=left;spacingLeft=6;fontStyle=5;overflow=hidden;" parent="Gl7yEqmmaUvTi7VhZGEq-8" vertex="1">
                    <mxGeometry x="60" width="150" height="30" as="geometry">
                        <mxRectangle width="150" height="30" as="alternateBounds"/>
                    </mxGeometry>
                </mxCell>
                <mxCell id="Gl7yEqmmaUvTi7VhZGEq-17" value="" style="edgeStyle=entityRelationEdgeStyle;fontSize=12;html=1;endArrow=ERoneToMany;entryX=0.998;entryY=0.253;entryDx=0;entryDy=0;exitX=0;exitY=0.5;exitDx=0;exitDy=0;entryPerimeter=0;" parent="1" source="AiQ3czS3Y79dKDK99Ic4-2" target="Gl7yEqmmaUvTi7VhZGEq-5" edge="1">
                    <mxGeometry width="100" height="100" relative="1" as="geometry">
                        <mxPoint x="603" y="261" as="sourcePoint"/>
                        <mxPoint x="513" y="361" as="targetPoint"/>
                    </mxGeometry>
                </mxCell>
                <mxCell id="Gl7yEqmmaUvTi7VhZGEq-18" value="" style="edgeStyle=entityRelationEdgeStyle;fontSize=12;html=1;endArrow=ERoneToMany;entryX=1;entryY=0.5;entryDx=0;entryDy=0;exitX=0;exitY=0.5;exitDx=0;exitDy=0;" parent="1" source="AiQ3czS3Y79dKDK99Ic4-83" target="Gl7yEqmmaUvTi7VhZGEq-8" edge="1">
                    <mxGeometry width="100" height="100" relative="1" as="geometry">
                        <mxPoint x="603" y="261" as="sourcePoint"/>
                        <mxPoint x="512.5799999999999" y="443.5899999999999" as="targetPoint"/>
                    </mxGeometry>
                </mxCell>
                <mxCell id="VlidqlFzQLrw7DeZYlY--1" value="CALIBRACIONES" style="shape=table;startSize=30;container=1;collapsible=1;childLayout=tableLayout;fixedRows=1;rowLines=0;fontStyle=1;align=center;resizeLast=1;" vertex="1" parent="1">
                    <mxGeometry x="993" y="216" width="277" height="240" as="geometry"/>
                </mxCell>
                <mxCell id="VlidqlFzQLrw7DeZYlY--2" value="" style="shape=partialRectangle;collapsible=0;dropTarget=0;pointerEvents=0;fillColor=none;top=0;left=0;bottom=1;right=0;points=[[0,0.5],[1,0.5]];portConstraint=eastwest;" vertex="1" parent="VlidqlFzQLrw7DeZYlY--1">
                    <mxGeometry y="30" width="277" height="30" as="geometry"/>
                </mxCell>
                <mxCell id="VlidqlFzQLrw7DeZYlY--3" value="PK" style="shape=partialRectangle;connectable=0;fillColor=none;top=0;left=0;bottom=0;right=0;fontStyle=1;overflow=hidden;" vertex="1" parent="VlidqlFzQLrw7DeZYlY--2">
                    <mxGeometry width="30" height="30" as="geometry">
                        <mxRectangle width="30" height="30" as="alternateBounds"/>
                    </mxGeometry>
                </mxCell>
                <mxCell id="VlidqlFzQLrw7DeZYlY--4" value="ID - INT AUTOINCREMENT" style="shape=partialRectangle;connectable=0;fillColor=none;top=0;left=0;bottom=0;right=0;align=left;spacingLeft=6;fontStyle=5;overflow=hidden;" vertex="1" parent="VlidqlFzQLrw7DeZYlY--2">
                    <mxGeometry x="30" width="247" height="30" as="geometry">
                        <mxRectangle width="240" height="30" as="alternateBounds"/>
                    </mxGeometry>
                </mxCell>
                <mxCell id="VlidqlFzQLrw7DeZYlY--5" value="" style="shape=partialRectangle;collapsible=0;dropTarget=0;pointerEvents=0;fillColor=none;top=0;left=0;bottom=0;right=0;points=[[0,0.5],[1,0.5]];portConstraint=eastwest;" vertex="1" parent="VlidqlFzQLrw7DeZYlY--1">
                    <mxGeometry y="60" width="277" height="30" as="geometry"/>
                </mxCell>
                <mxCell id="VlidqlFzQLrw7DeZYlY--6" value="" style="shape=partialRectangle;connectable=0;fillColor=none;top=0;left=0;bottom=0;right=0;editable=1;overflow=hidden;" vertex="1" parent="VlidqlFzQLrw7DeZYlY--5">
                    <mxGeometry width="30" height="30" as="geometry">
                        <mxRectangle width="30" height="30" as="alternateBounds"/>
                    </mxGeometry>
                </mxCell>
                <mxCell id="VlidqlFzQLrw7DeZYlY--7" value="Calibrador VARCHAR(120)" style="shape=partialRectangle;connectable=0;fillColor=none;top=0;left=0;bottom=0;right=0;align=left;spacingLeft=6;overflow=hidden;" vertex="1" parent="VlidqlFzQLrw7DeZYlY--5">
                    <mxGeometry x="30" width="247" height="30" as="geometry">
                        <mxRectangle width="240" height="30" as="alternateBounds"/>
                    </mxGeometry>
                </mxCell>
                <mxCell id="VlidqlFzQLrw7DeZYlY--8" value="" style="shape=partialRectangle;collapsible=0;dropTarget=0;pointerEvents=0;fillColor=none;top=0;left=0;bottom=0;right=0;points=[[0,0.5],[1,0.5]];portConstraint=eastwest;" vertex="1" parent="VlidqlFzQLrw7DeZYlY--1">
                    <mxGeometry y="90" width="277" height="30" as="geometry"/>
                </mxCell>
                <mxCell id="VlidqlFzQLrw7DeZYlY--9" value="" style="shape=partialRectangle;connectable=0;fillColor=none;top=0;left=0;bottom=0;right=0;editable=1;overflow=hidden;" vertex="1" parent="VlidqlFzQLrw7DeZYlY--8">
                    <mxGeometry width="30" height="30" as="geometry">
                        <mxRectangle width="30" height="30" as="alternateBounds"/>
                    </mxGeometry>
                </mxCell>
                <mxCell id="VlidqlFzQLrw7DeZYlY--10" value="Fecha - DATETIME" style="shape=partialRectangle;connectable=0;fillColor=none;top=0;left=0;bottom=0;right=0;align=left;spacingLeft=6;overflow=hidden;" vertex="1" parent="VlidqlFzQLrw7DeZYlY--8">
                    <mxGeometry x="30" width="247" height="30" as="geometry">
                        <mxRectangle width="240" height="30" as="alternateBounds"/>
                    </mxGeometry>
                </mxCell>
                <mxCell id="VlidqlFzQLrw7DeZYlY--11" value="" style="shape=partialRectangle;collapsible=0;dropTarget=0;pointerEvents=0;fillColor=none;top=0;left=0;bottom=0;right=0;points=[[0,0.5],[1,0.5]];portConstraint=eastwest;" vertex="1" parent="VlidqlFzQLrw7DeZYlY--1">
                    <mxGeometry y="120" width="277" height="30" as="geometry"/>
                </mxCell>
                <mxCell id="VlidqlFzQLrw7DeZYlY--12" value="" style="shape=partialRectangle;connectable=0;fillColor=none;top=0;left=0;bottom=0;right=0;editable=1;overflow=hidden;" vertex="1" parent="VlidqlFzQLrw7DeZYlY--11">
                    <mxGeometry width="30" height="30" as="geometry">
                        <mxRectangle width="30" height="30" as="alternateBounds"/>
                    </mxGeometry>
                </mxCell>
                <mxCell id="VlidqlFzQLrw7DeZYlY--13" value="Certificado - VARCHAR(150)" style="shape=partialRectangle;connectable=0;fillColor=none;top=0;left=0;bottom=0;right=0;align=left;spacingLeft=6;overflow=hidden;" vertex="1" parent="VlidqlFzQLrw7DeZYlY--11">
                    <mxGeometry x="30" width="247" height="30" as="geometry">
                        <mxRectangle width="240" height="30" as="alternateBounds"/>
                    </mxGeometry>
                </mxCell>
                <mxCell id="VlidqlFzQLrw7DeZYlY--14" value="" style="shape=partialRectangle;collapsible=0;dropTarget=0;pointerEvents=0;fillColor=none;top=0;left=0;bottom=0;right=0;points=[[0,0.5],[1,0.5]];portConstraint=eastwest;" vertex="1" parent="VlidqlFzQLrw7DeZYlY--1">
                    <mxGeometry y="150" width="277" height="30" as="geometry"/>
                </mxCell>
                <mxCell id="VlidqlFzQLrw7DeZYlY--15" value="" style="shape=partialRectangle;connectable=0;fillColor=none;top=0;left=0;bottom=0;right=0;editable=1;overflow=hidden;" vertex="1" parent="VlidqlFzQLrw7DeZYlY--14">
                    <mxGeometry width="30" height="30" as="geometry">
                        <mxRectangle width="30" height="30" as="alternateBounds"/>
                    </mxGeometry>
                </mxCell>
                <mxCell id="VlidqlFzQLrw7DeZYlY--16" value="RYR - VARCHAR(150)" style="shape=partialRectangle;connectable=0;fillColor=none;top=0;left=0;bottom=0;right=0;align=left;spacingLeft=6;overflow=hidden;" vertex="1" parent="VlidqlFzQLrw7DeZYlY--14">
                    <mxGeometry x="30" width="247" height="30" as="geometry">
                        <mxRectangle width="240" height="30" as="alternateBounds"/>
                    </mxGeometry>
                </mxCell>
                <mxCell id="VlidqlFzQLrw7DeZYlY--20" value="" style="shape=partialRectangle;collapsible=0;dropTarget=0;pointerEvents=0;fillColor=none;top=0;left=0;bottom=0;right=0;points=[[0,0.5],[1,0.5]];portConstraint=eastwest;" vertex="1" parent="VlidqlFzQLrw7DeZYlY--1">
                    <mxGeometry y="180" width="277" height="30" as="geometry"/>
                </mxCell>
                <mxCell id="VlidqlFzQLrw7DeZYlY--21" value="FK" style="shape=partialRectangle;connectable=0;fillColor=none;top=0;left=0;bottom=0;right=0;fontStyle=0;overflow=hidden;" vertex="1" parent="VlidqlFzQLrw7DeZYlY--20">
                    <mxGeometry width="30" height="30" as="geometry">
                        <mxRectangle width="30" height="30" as="alternateBounds"/>
                    </mxGeometry>
                </mxCell>
                <mxCell id="VlidqlFzQLrw7DeZYlY--22" value="Equipo - VARCHAR(40)" style="shape=partialRectangle;connectable=0;fillColor=none;top=0;left=0;bottom=0;right=0;align=left;spacingLeft=6;fontStyle=0;overflow=hidden;" vertex="1" parent="VlidqlFzQLrw7DeZYlY--20">
                    <mxGeometry x="30" width="247" height="30" as="geometry">
                        <mxRectangle width="240" height="30" as="alternateBounds"/>
                    </mxGeometry>
                </mxCell>
                <mxCell id="VlidqlFzQLrw7DeZYlY--23" value="" style="shape=partialRectangle;collapsible=0;dropTarget=0;pointerEvents=0;fillColor=none;top=0;left=0;bottom=0;right=0;points=[[0,0.5],[1,0.5]];portConstraint=eastwest;" vertex="1" parent="VlidqlFzQLrw7DeZYlY--1">
                    <mxGeometry y="210" width="277" height="30" as="geometry"/>
                </mxCell>
                <mxCell id="VlidqlFzQLrw7DeZYlY--24" value="FK" style="shape=partialRectangle;connectable=0;fillColor=none;top=0;left=0;bottom=0;right=0;fontStyle=0;overflow=hidden;" vertex="1" parent="VlidqlFzQLrw7DeZYlY--23">
                    <mxGeometry width="30" height="30" as="geometry">
                        <mxRectangle width="30" height="30" as="alternateBounds"/>
                    </mxGeometry>
                </mxCell>
                <mxCell id="VlidqlFzQLrw7DeZYlY--25" value="Verificador - VARCHAR(30)" style="shape=partialRectangle;connectable=0;fillColor=none;top=0;left=0;bottom=0;right=0;align=left;spacingLeft=6;fontStyle=0;overflow=hidden;" vertex="1" parent="VlidqlFzQLrw7DeZYlY--23">
                    <mxGeometry x="30" width="247" height="30" as="geometry">
                        <mxRectangle width="240" height="30" as="alternateBounds"/>
                    </mxGeometry>
                </mxCell>
                <mxCell id="VlidqlFzQLrw7DeZYlY--27" value="" style="edgeStyle=entityRelationEdgeStyle;fontSize=12;html=1;endArrow=none;exitX=0;exitY=0.5;exitDx=0;exitDy=0;entryX=1;entryY=0.5;entryDx=0;entryDy=0;startArrow=ERoneToMany;startFill=0;endFill=0;" edge="1" parent="1" source="VlidqlFzQLrw7DeZYlY--20" target="AiQ3czS3Y79dKDK99Ic4-2">
                    <mxGeometry width="100" height="100" relative="1" as="geometry">
                        <mxPoint x="603" y="671.0000000000002" as="sourcePoint"/>
                        <mxPoint x="513" y="641.0000000000002" as="targetPoint"/>
                    </mxGeometry>
                </mxCell>
                <mxCell id="VlidqlFzQLrw7DeZYlY--28" value="" style="edgeStyle=entityRelationEdgeStyle;fontSize=12;html=1;endArrow=none;exitX=0;exitY=0.5;exitDx=0;exitDy=0;entryX=1;entryY=0.5;entryDx=0;entryDy=0;startArrow=ERoneToMany;startFill=0;endFill=0;" edge="1" parent="1" source="VlidqlFzQLrw7DeZYlY--23" target="AiQ3czS3Y79dKDK99Ic4-83">
                    <mxGeometry width="100" height="100" relative="1" as="geometry">
                        <mxPoint x="973" y="891" as="sourcePoint"/>
                        <mxPoint x="883" y="260.9999999999998" as="targetPoint"/>
                    </mxGeometry>
                </mxCell>
                <mxCell id="VlidqlFzQLrw7DeZYlY--39" value="VERIFICADORES" style="shape=table;startSize=30;container=1;collapsible=1;childLayout=tableLayout;fixedRows=1;rowLines=0;fontStyle=1;align=center;resizeLast=1;" vertex="1" parent="1">
                    <mxGeometry x="303" y="206" width="210" height="130.00000000000023" as="geometry"/>
                </mxCell>
                <mxCell id="VlidqlFzQLrw7DeZYlY--40" value="" style="shape=partialRectangle;collapsible=0;dropTarget=0;pointerEvents=0;fillColor=none;top=0;left=0;bottom=1;right=0;points=[[0,0.5],[1,0.5]];portConstraint=eastwest;" vertex="1" parent="VlidqlFzQLrw7DeZYlY--39">
                    <mxGeometry y="30" width="210" height="30" as="geometry"/>
                </mxCell>
                <mxCell id="VlidqlFzQLrw7DeZYlY--41" value="PK" style="shape=partialRectangle;connectable=0;fillColor=none;top=0;left=0;bottom=0;right=0;fontStyle=1;overflow=hidden;" vertex="1" parent="VlidqlFzQLrw7DeZYlY--40">
                    <mxGeometry width="30" height="30" as="geometry">
                        <mxRectangle width="30" height="30" as="alternateBounds"/>
                    </mxGeometry>
                </mxCell>
                <mxCell id="VlidqlFzQLrw7DeZYlY--42" value="ID - INT AUTOINCREMENT" style="shape=partialRectangle;connectable=0;fillColor=none;top=0;left=0;bottom=0;right=0;align=left;spacingLeft=6;fontStyle=5;overflow=hidden;" vertex="1" parent="VlidqlFzQLrw7DeZYlY--40">
                    <mxGeometry x="30" width="180" height="30" as="geometry">
                        <mxRectangle width="180" height="30" as="alternateBounds"/>
                    </mxGeometry>
                </mxCell>
                <mxCell id="VlidqlFzQLrw7DeZYlY--43" value="" style="shape=partialRectangle;collapsible=0;dropTarget=0;pointerEvents=0;fillColor=none;top=0;left=0;bottom=0;right=0;points=[[0,0.5],[1,0.5]];portConstraint=eastwest;" vertex="1" parent="VlidqlFzQLrw7DeZYlY--39">
                    <mxGeometry y="60" width="210" height="30" as="geometry"/>
                </mxCell>
                <mxCell id="VlidqlFzQLrw7DeZYlY--44" value="" style="shape=partialRectangle;connectable=0;fillColor=none;top=0;left=0;bottom=0;right=0;editable=1;overflow=hidden;" vertex="1" parent="VlidqlFzQLrw7DeZYlY--43">
                    <mxGeometry width="30" height="30" as="geometry">
                        <mxRectangle width="30" height="30" as="alternateBounds"/>
                    </mxGeometry>
                </mxCell>
                <mxCell id="VlidqlFzQLrw7DeZYlY--45" value="Nombre - VARCHAR(50)" style="shape=partialRectangle;connectable=0;fillColor=none;top=0;left=0;bottom=0;right=0;align=left;spacingLeft=6;overflow=hidden;" vertex="1" parent="VlidqlFzQLrw7DeZYlY--43">
                    <mxGeometry x="30" width="180" height="30" as="geometry">
                        <mxRectangle width="180" height="30" as="alternateBounds"/>
                    </mxGeometry>
                </mxCell>
                <mxCell id="VlidqlFzQLrw7DeZYlY--55" value="" style="shape=partialRectangle;collapsible=0;dropTarget=0;pointerEvents=0;fillColor=none;top=0;left=0;bottom=0;right=0;points=[[0,0.5],[1,0.5]];portConstraint=eastwest;" vertex="1" parent="VlidqlFzQLrw7DeZYlY--39">
                    <mxGeometry y="90" width="210" height="30" as="geometry"/>
                </mxCell>
                <mxCell id="VlidqlFzQLrw7DeZYlY--56" value="FK" style="shape=partialRectangle;connectable=0;fillColor=none;top=0;left=0;bottom=0;right=0;editable=1;overflow=hidden;" vertex="1" parent="VlidqlFzQLrw7DeZYlY--55">
                    <mxGeometry width="30" height="30" as="geometry">
                        <mxRectangle width="30" height="30" as="alternateBounds"/>
                    </mxGeometry>
                </mxCell>
                <mxCell id="VlidqlFzQLrw7DeZYlY--57" value="Equipo - VARCHAR(40)" style="shape=partialRectangle;connectable=0;fillColor=none;top=0;left=0;bottom=0;right=0;align=left;spacingLeft=6;overflow=hidden;" vertex="1" parent="VlidqlFzQLrw7DeZYlY--55">
                    <mxGeometry x="30" width="180" height="30" as="geometry">
                        <mxRectangle width="180" height="30" as="alternateBounds"/>
                    </mxGeometry>
                </mxCell>
                <mxCell id="VlidqlFzQLrw7DeZYlY--77" value="" style="edgeStyle=entityRelationEdgeStyle;fontSize=12;html=1;endArrow=ERoneToMany;entryX=1;entryY=0.5;entryDx=0;entryDy=0;exitX=0;exitY=0.5;exitDx=0;exitDy=0;" edge="1" parent="1" source="AiQ3czS3Y79dKDK99Ic4-2" target="VlidqlFzQLrw7DeZYlY--55">
                    <mxGeometry width="100" height="100" relative="1" as="geometry">
                        <mxPoint x="553" y="186" as="sourcePoint"/>
                        <mxPoint x="522.5799999999999" y="713.5900000000001" as="targetPoint"/>
                    </mxGeometry>
                </mxCell>
                <mxCell id="VlidqlFzQLrw7DeZYlY--78" value="PROVEEDORES" style="shape=table;startSize=30;container=1;collapsible=1;childLayout=tableLayout;fixedRows=1;rowLines=0;fontStyle=1;align=center;resizeLast=1;" vertex="1" parent="1">
                    <mxGeometry x="303" y="780" width="210" height="150.00000000000023" as="geometry"/>
                </mxCell>
                <mxCell id="VlidqlFzQLrw7DeZYlY--79" value="" style="shape=partialRectangle;collapsible=0;dropTarget=0;pointerEvents=0;fillColor=none;top=0;left=0;bottom=1;right=0;points=[[0,0.5],[1,0.5]];portConstraint=eastwest;" vertex="1" parent="VlidqlFzQLrw7DeZYlY--78">
                    <mxGeometry y="30" width="210" height="30" as="geometry"/>
                </mxCell>
                <mxCell id="VlidqlFzQLrw7DeZYlY--80" value="PK" style="shape=partialRectangle;connectable=0;fillColor=none;top=0;left=0;bottom=0;right=0;fontStyle=1;overflow=hidden;" vertex="1" parent="VlidqlFzQLrw7DeZYlY--79">
                    <mxGeometry width="30" height="30" as="geometry">
                        <mxRectangle width="30" height="30" as="alternateBounds"/>
                    </mxGeometry>
                </mxCell>
                <mxCell id="VlidqlFzQLrw7DeZYlY--81" value="ID - INT AUTOINCREMENT" style="shape=partialRectangle;connectable=0;fillColor=none;top=0;left=0;bottom=0;right=0;align=left;spacingLeft=6;fontStyle=5;overflow=hidden;" vertex="1" parent="VlidqlFzQLrw7DeZYlY--79">
                    <mxGeometry x="30" width="180" height="30" as="geometry">
                        <mxRectangle width="180" height="30" as="alternateBounds"/>
                    </mxGeometry>
                </mxCell>
                <mxCell id="VlidqlFzQLrw7DeZYlY--82" value="" style="shape=partialRectangle;collapsible=0;dropTarget=0;pointerEvents=0;fillColor=none;top=0;left=0;bottom=0;right=0;points=[[0,0.5],[1,0.5]];portConstraint=eastwest;" vertex="1" parent="VlidqlFzQLrw7DeZYlY--78">
                    <mxGeometry y="60" width="210" height="20" as="geometry"/>
                </mxCell>
                <mxCell id="VlidqlFzQLrw7DeZYlY--83" value="" style="shape=partialRectangle;connectable=0;fillColor=none;top=0;left=0;bottom=0;right=0;editable=1;overflow=hidden;" vertex="1" parent="VlidqlFzQLrw7DeZYlY--82">
                    <mxGeometry width="30" height="20" as="geometry">
                        <mxRectangle width="30" height="20" as="alternateBounds"/>
                    </mxGeometry>
                </mxCell>
                <mxCell id="VlidqlFzQLrw7DeZYlY--84" value="Nombre - VARCHAR(60)" style="shape=partialRectangle;connectable=0;fillColor=none;top=0;left=0;bottom=0;right=0;align=left;spacingLeft=6;overflow=hidden;" vertex="1" parent="VlidqlFzQLrw7DeZYlY--82">
                    <mxGeometry x="30" width="180" height="20" as="geometry">
                        <mxRectangle width="180" height="20" as="alternateBounds"/>
                    </mxGeometry>
                </mxCell>
                <mxCell id="VlidqlFzQLrw7DeZYlY--85" value="" style="shape=partialRectangle;collapsible=0;dropTarget=0;pointerEvents=0;fillColor=none;top=0;left=0;bottom=0;right=0;points=[[0,0.5],[1,0.5]];portConstraint=eastwest;" vertex="1" parent="VlidqlFzQLrw7DeZYlY--78">
                    <mxGeometry y="80" width="210" height="30" as="geometry"/>
                </mxCell>
                <mxCell id="VlidqlFzQLrw7DeZYlY--86" value="" style="shape=partialRectangle;connectable=0;fillColor=none;top=0;left=0;bottom=0;right=0;editable=1;overflow=hidden;" vertex="1" parent="VlidqlFzQLrw7DeZYlY--85">
                    <mxGeometry width="30" height="30" as="geometry">
                        <mxRectangle width="30" height="30" as="alternateBounds"/>
                    </mxGeometry>
                </mxCell>
                <mxCell id="VlidqlFzQLrw7DeZYlY--87" value="Cerfificado - VARCHAR(100)" style="shape=partialRectangle;connectable=0;fillColor=none;top=0;left=0;bottom=0;right=0;align=left;spacingLeft=6;overflow=hidden;" vertex="1" parent="VlidqlFzQLrw7DeZYlY--85">
                    <mxGeometry x="30" width="180" height="30" as="geometry">
                        <mxRectangle width="180" height="30" as="alternateBounds"/>
                    </mxGeometry>
                </mxCell>
                <mxCell id="VlidqlFzQLrw7DeZYlY--88" value="" style="shape=partialRectangle;collapsible=0;dropTarget=0;pointerEvents=0;fillColor=none;top=0;left=0;bottom=0;right=0;points=[[0,0.5],[1,0.5]];portConstraint=eastwest;" vertex="1" parent="VlidqlFzQLrw7DeZYlY--78">
                    <mxGeometry y="110" width="210" height="30" as="geometry"/>
                </mxCell>
                <mxCell id="VlidqlFzQLrw7DeZYlY--89" value="" style="shape=partialRectangle;connectable=0;fillColor=none;top=0;left=0;bottom=0;right=0;editable=1;overflow=hidden;" vertex="1" parent="VlidqlFzQLrw7DeZYlY--88">
                    <mxGeometry width="30" height="30" as="geometry">
                        <mxRectangle width="30" height="30" as="alternateBounds"/>
                    </mxGeometry>
                </mxCell>
                <mxCell id="VlidqlFzQLrw7DeZYlY--90" value="Agregado - DATETIME" style="shape=partialRectangle;connectable=0;fillColor=none;top=0;left=0;bottom=0;right=0;align=left;spacingLeft=6;overflow=hidden;" vertex="1" parent="VlidqlFzQLrw7DeZYlY--88">
                    <mxGeometry x="30" width="180" height="30" as="geometry">
                        <mxRectangle width="180" height="30" as="alternateBounds"/>
                    </mxGeometry>
                </mxCell>
            </root>
        </mxGraphModel>
    </diagram>
</mxfile>